<svg width="64" height="64" viewBox="0 0 64 64" fill="none" xmlns="http://www.w3.org/2000/svg">
  <defs>
    <linearGradient id="bg-gradient" x1="0" y1="0" x2="64" y2="64" gradientUnits="userSpaceOnUse">
      <stop stop-color="#5B8CFF"/>
      <stop offset="0.5" stop-color="#A259F7"/>
      <stop offset="1" stop-color="#F24B8A"/>
    </linearGradient>
    <filter id="shadow" x="0" y="0" width="64" height="64" filterUnits="userSpaceOnUse">
      <feDropShadow dx="0" dy="2" stdDeviation="2" flood-color="#000" flood-opacity="0.18"/>
    </filter>
  </defs>
  <rect x="0" y="0" width="64" height="64" rx="16" fill="url(#bg-gradient)"/>
  <g filter="url(#shadow)">
    <path d="M32 16c-7.5 0-14 5.5-14 13.5 0 3.2 1.2 6.1 3.2 8.3C20.5 39.5 20 41 20 42.5 20 46 24 48 28 48c1.2 0 2.3-0.2 3.3-0.6.7 1.1 2.1 1.6 3.7 1.6s3-0.5 3.7-1.6C41.7 47.8 42.8 48 44 48c4 0 8-2 8-5.5 0-1.5-0.5-3-1.2-4.2C56.8 36 58 33.1 58 29.9 58 21.5 49.5 16 42 16c-2.2 0-4.3 0.4-6.1 1.1C34.3 16.4 33.2 16 32 16z" fill="#fff"/>
    <path d="M32 22v20" stroke="#A259F7" stroke-width="2.5" stroke-linecap="round"/>
    <path d="M24 28c-2-2-6 0-6 3" stroke="#A259F7" stroke-width="2" stroke-linecap="round"/>
    <path d="M40 28c2-2 6 0 6 3" stroke="#A259F7" stroke-width="2" stroke-linecap="round"/>
    <path d="M28 36c-1.5 0-3 1.5-3 3" stroke="#A259F7" stroke-width="2" stroke-linecap="round"/>
    <path d="M36 36c1.5 0 3 1.5 3 3" stroke="#A259F7" stroke-width="2" stroke-linecap="round"/>
  </g>
</svg> 